<?xml version="1.0" encoding="UTF-8" standalone="no"?>
<!-- Created with Inkscape (http://www.inkscape.org/) -->

<svg
   width="210mm"
   height="297mm"
   viewBox="0 0 210 297"
   version="1.1"
   id="svg5"
   inkscape:version="1.2.1 (9c6d41e410, 2022-07-14)"
   sodipodi:docname="MRHistory.svg"
   xmlns:inkscape="http://www.inkscape.org/namespaces/inkscape"
   xmlns:sodipodi="http://sodipodi.sourceforge.net/DTD/sodipodi-0.dtd"
   xmlns="http://www.w3.org/2000/svg"
   xmlns:svg="http://www.w3.org/2000/svg">
  <sodipodi:namedview
     id="namedview7"
     pagecolor="#ffffff"
     bordercolor="#000000"
     borderopacity="0.25"
     inkscape:showpageshadow="2"
     inkscape:pageopacity="0.0"
     inkscape:pagecheckerboard="0"
     inkscape:deskcolor="#d1d1d1"
     inkscape:document-units="mm"
     showgrid="false"
     inkscape:zoom="1.0066639"
     inkscape:cx="335.26584"
     inkscape:cy="146.0269"
     inkscape:window-width="1366"
     inkscape:window-height="745"
     inkscape:window-x="-8"
     inkscape:window-y="-8"
     inkscape:window-maximized="1"
     inkscape:current-layer="layer1" />
  <defs
     id="defs2" />
  <g
     inkscape:label="Слой 1"
     inkscape:groupmode="layer"
     id="layer1">
    <rect
       style="fill:#ffff00;stroke-width:0.264583"
       id="rect111"
       width="110.38937"
       height="100.92743"
       x="33.116814"
       y="40.476105" />
    <path
       style="fill:#808000;stroke-width:0.264583"
       d="m 56.77168,141.40354 87.78584,-48.361063 -1.57699,49.938053 z"
       id="path219" />
    <text
       xml:space="preserve"
       style="font-size:19.372px;text-align:center;text-anchor:middle;fill:#ff0000;stroke-width:0.518893"
       x="111.93356"
       y="30.872614"
       id="text329"
       transform="scale(0.81905796,1.2209148)"><tspan
         sodipodi:role="line"
         id="tspan327"
         style="fill:#ff0000;stroke-width:0.518893"
         x="111.93356"
         y="30.872614">Program</tspan></text>
    <text
       xml:space="preserve"
       style="font-size:16.9433px;text-align:center;text-anchor:middle;fill:#ff0000;stroke-width:0.453839"
       x="216.54794"
       y="92.183334"
       id="text543"
       transform="scale(0.68448273,1.4609572)"><tspan
         sodipodi:role="line"
         id="tspan541"
         style="stroke-width:0.453839"
         x="216.54794"
         y="92.183334">Part are program</tspan></text>
    <rect
       style="fill:#800080;stroke-width:0.264583"
       id="rect647"
       width="41.527435"
       height="67.284958"
       x="154.01947"
       y="31.539822" />
    <text
       xml:space="preserve"
       style="font-size:18.5216px;text-align:center;text-anchor:middle;fill:#000000;stroke-width:0.496114"
       x="185.84125"
       y="65.212555"
       id="text755"
       transform="scale(0.8746512,1.1433129)"><tspan
         sodipodi:role="line"
         id="tspan753"
         style="fill:#000000;stroke-width:0.496114"
         x="185.84125"
         y="65.212555">Magazine</tspan></text>
    <rect
       style="fill:#008080;stroke-width:0.264583"
       id="rect807"
       width="16.821239"
       height="53.617699"
       x="18.398232"
       y="180.82832" />
    <path
       style="fill:#008080;stroke-width:0.264583"
       id="path913"
       sodipodi:type="arc"
       sodipodi:cx="27.334515"
       sodipodi:cy="236.54868"
       sodipodi:rx="8.4106197"
       sodipodi:ry="6.8336282"
       sodipodi:start="0"
       sodipodi:end="6.2824551"
       sodipodi:arc-type="slice"
       d="m 35.745134,236.54868 a 8.4106197,6.8336282 0 0 1 -8.409084,6.83362 8.4106197,6.8336282 0 0 1 -8.412155,-6.83113 8.4106197,6.8336282 0 0 1 8.406013,-6.83612 8.4106197,6.8336282 0 0 1 8.415224,6.82864 l -8.410617,0.005 z" />
    <path
       style="fill:#008080;stroke-width:0.264583"
       d="M 62.028318,188.18761 82.529203,201.85486 62.553982,212.8938 Z"
       id="path969" />
    <path
       style="fill:#008080;stroke-width:0.264583"
       d="m 83.58053,202.38053 17.3469,-13.66726 1.57699,24.18053 z"
       id="path971" />
    <path
       style="fill:#008080;stroke-width:0.264583"
       id="path973"
       sodipodi:type="arc"
       sodipodi:cx="52.303535"
       sodipodi:cy="163.21858"
       sodipodi:rx="11.827434"
       sodipodi:ry="10.776107"
       sodipodi:start="0"
       sodipodi:end="6.2824551"
       sodipodi:arc-type="slice"
       d="m 64.130969,163.21858 a 11.827434,10.776107 0 0 1 -11.825274,10.77611 11.827434,10.776107 0 0 1 -11.829592,-10.77217 11.827434,10.776107 0 0 1 11.820955,-10.78004 11.827434,10.776107 0 0 1 11.833908,10.76823 l -11.827431,0.008 z" />
    <path
       style="fill:#008080;stroke-width:0.264583"
       id="path973-6"
       sodipodi:type="arc"
       sodipodi:cx="66.233627"
       sodipodi:cy="163.48141"
       sodipodi:rx="11.827434"
       sodipodi:ry="10.776107"
       sodipodi:start="0"
       sodipodi:end="6.2824551"
       sodipodi:arc-type="slice"
       d="M 78.061061,163.48141 A 11.827434,10.776107 0 0 1 66.235786,174.25752 11.827434,10.776107 0 0 1 54.406195,163.48535 11.827434,10.776107 0 0 1 66.22715,152.70531 11.827434,10.776107 0 0 1 78.061058,163.47355 l -11.827431,0.008 z" />
    <path
       style="fill:#ffffff;stroke-width:0.264583"
       id="path997"
       sodipodi:type="arc"
       sodipodi:cx="51.813629"
       sodipodi:cy="163.48141"
       sodipodi:rx="3.285398"
       sodipodi:ry="2.3654866"
       sodipodi:start="0"
       sodipodi:end="6.2824551"
       sodipodi:arc-type="slice"
       d="m 55.099027,163.48141 a 3.285398,2.3654866 0 0 1 -3.284798,2.36549 3.285398,2.3654866 0 0 1 -3.285998,-2.36462 3.285398,2.3654866 0 0 1 3.283599,-2.36635 3.285398,2.3654866 0 0 1 3.287196,2.36376 l -3.285397,0.002 z" />
    <path
       style="fill:#ffffff;stroke-width:0.264583"
       id="path997-6"
       sodipodi:type="arc"
       sodipodi:cx="67.83532"
       sodipodi:cy="163.73401"
       sodipodi:rx="3.285398"
       sodipodi:ry="2.3654866"
       sodipodi:start="0"
       sodipodi:end="6.2824551"
       sodipodi:arc-type="slice"
       d="m 71.120718,163.73401 a 3.285398,2.3654866 0 0 1 -3.284799,2.36549 3.285398,2.3654866 0 0 1 -3.285997,-2.36463 3.285398,2.3654866 0 0 1 3.283598,-2.36635 3.285398,2.3654866 0 0 1 3.287197,2.36376 l -3.285397,0.002 z" />
    <path
       style="fill:#008000;stroke-width:0.288584"
       id="path1073"
       sodipodi:type="arc"
       sodipodi:cx="86.47168"
       sodipodi:cy="255.20975"
       sodipodi:rx="19.186726"
       sodipodi:ry="18.135397"
       sodipodi:start="0"
       sodipodi:end="6.2824551"
       sodipodi:arc-type="slice"
       d="M 105.65841,255.20975 A 19.186726,18.135397 0 0 1 86.475182,273.34514 19.186726,18.135397 0 0 1 67.284955,255.21637 19.186726,18.135397 0 0 1 86.461172,237.07435 19.186726,18.135397 0 0 1 105.6584,255.1965 l -19.18672,0.0133 z" />
    <path
       style="fill:#00ff00;stroke-width:0.264583"
       d="m 75.695574,247.06194 c 1.314159,-1.31415 4.730974,-2.62831 4.993806,-3.67964 0.262832,-1.05133 2.628318,-0.52567 2.628318,1.31416 0,1.83982 -2.102654,1.83982 -2.102654,6.57079 0,4.73098 0.525663,6.30797 -0.525664,6.30797 -1.051327,0 -3.153984,-0.26283 -3.942479,-1.57699 -0.788496,-1.31416 -1.051327,-8.93629 -1.051327,-8.93629 z"
       id="path1181" />
    <path
       style="fill:#00ff00;stroke-width:0.264583"
       d="m 95.145131,248.11327 1.839823,-5.7823 3.942476,4.20531 0.7885,7.35929 -5.25664,3.15399 z"
       id="path1237" />
    <path
       style="fill:#00ff00;stroke-width:0.264583"
       d="m 84.894689,268.0885 c 0.525663,-2.3655 5.782302,-7.3593 5.782302,-7.3593 0,0 1.051327,-2.10265 3.416813,0.7885 2.365486,2.89115 3.416813,2.10265 1.314159,4.99381 C 93.305309,269.40266 89.1,270.19115 89.1,270.19115 Z"
       id="path1239" />
    <path
       style="fill:#552200;stroke-width:0.264583"
       id="path1293"
       sodipodi:type="arc"
       sodipodi:cx="35.088051"
       sodipodi:cy="275.31638"
       sodipodi:rx="14.849999"
       sodipodi:ry="13.798672"
       sodipodi:start="0"
       sodipodi:end="6.2824551"
       sodipodi:arc-type="slice"
       d="m 49.93805,275.31638 a 14.849999,13.798672 0 0 1 -14.847288,13.79867 14.849999,13.798672 0 0 1 -14.85271,-13.79364 14.849999,13.798672 0 0 1 14.841866,-13.8037 14.849999,13.798672 0 0 1 14.858128,13.78859 l -14.849995,0.0101 z" />
    <path
       style="fill:#deaa87;stroke-width:0.264583"
       d="m 29.437168,288.85221 c 0.262832,-5.25664 2.102655,-9.46195 6.045131,-9.19911 3.94248,0.26283 7.884957,1.05132 9.461947,2.10264 1.576991,1.05135 4.468143,0.52567 -0.525663,3.67967 -4.993804,3.15396 -14.981415,3.4168 -14.981415,3.4168 z"
       id="path1401" />
    <text
       xml:space="preserve"
       style="font-size:9.87777px;text-align:center;text-anchor:middle;fill:#ff0000;stroke-width:0.264583"
       x="72.80442"
       y="279.39029"
       id="text1511"><tspan
         sodipodi:role="line"
         id="tspan1509"
         style="stroke-width:0.264583;fill:#ff0000"
         x="72.80442"
         y="279.39029">Ass integer</tspan></text>
    <rect
       style="fill:#2b1100;stroke-width:0.264583"
       id="rect1513"
       width="39.950443"
       height="39.424778"
       x="139.56372"
       y="178.20001" />
    <path
       style="fill:#552200;stroke-width:0.264583"
       d="m 144.55752,201.06637 c 5.51947,-0.52567 8.93628,-7.88496 16.55841,-4.46814 7.62212,3.41681 13.93009,14.71858 13.93009,14.71858 0,0 -19.97523,1.83982 -25.23186,-0.26283 -5.25664,-2.10266 -5.25664,-9.98761 -5.25664,-9.98761 z"
       id="path1621" />
    <path
       style="fill:#502d16;stroke-width:0.264583"
       d="m 138.51239,205.53451 c -9.46195,1.57699 -18.66106,1.31416 -15.50708,7.35929 3.15398,6.04514 -4.99381,14.19292 6.83363,16.82124 11.82743,2.62832 21.28938,5.25664 32.06548,2.10266 10.77611,-3.15399 26.02036,-2.62832 27.86018,-1.83983 1.83982,0.7885 10.7761,2.36549 10.7761,2.36549 l -2.10265,-11.5646 -60.97699,1.05132 z"
       id="path1623" />
    <text
       xml:space="preserve"
       style="font-size:9.87777px;text-align:center;text-anchor:middle;fill:#502d16;stroke-width:0.264583"
       x="149.02565"
       y="167.16104"
       id="text1733"><tspan
         sodipodi:role="line"
         id="tspan1731"
         style="stroke-width:0.264583"
         x="149.02565"
         y="167.16104">The pot off meat</tspan></text>
    <path
       style="fill:#502d16;stroke-width:0.190251"
       id="path1837"
       sodipodi:type="arc"
       sodipodi:cx="94.750877"
       sodipodi:cy="202.11769"
       sodipodi:rx="1.7084072"
       sodipodi:ry="1.839823"
       sodipodi:start="0"
       sodipodi:end="6.2824551"
       sodipodi:arc-type="slice"
       d="m 96.459285,202.11769 a 1.7084072,1.839823 0 0 1 -1.708096,1.83982 1.7084072,1.839823 0 0 1 -1.708719,-1.83915 1.7084072,1.839823 0 0 1 1.707472,-1.84049 1.7084072,1.839823 0 0 1 1.709342,1.83848 l -1.708407,0.001 z" />
    <path
       style="fill:#000000;stroke-width:0.264583"
       id="path1839"
       sodipodi:type="arc"
       sodipodi:cx="70.9646"
       sodipodi:cy="202.51195"
       sodipodi:rx="2.1026549"
       sodipodi:ry="1.9712389"
       sodipodi:start="0"
       sodipodi:end="6.2824551"
       sodipodi:arc-type="slice"
       d="m 73.067255,202.51195 a 2.1026549,1.9712389 0 0 1 -2.102272,1.97124 2.1026549,1.9712389 0 0 1 -2.103038,-1.97052 2.1026549,1.9712389 0 0 1 2.101503,-1.97196 2.1026549,1.9712389 0 0 1 2.103806,1.9698 l -2.102654,0.001 z" />
    <path
       style="fill:#800000;stroke-width:0.264583"
       id="path1893"
       sodipodi:type="arc"
       sodipodi:cx="179.51416"
       sodipodi:cy="272.29382"
       sodipodi:rx="11.564602"
       sodipodi:ry="11.038938"
       sodipodi:start="0"
       sodipodi:end="6.2824551"
       sodipodi:arc-type="slice"
       d="m 191.07876,272.29382 a 11.564602,11.038938 0 0 1 -11.56249,11.03894 11.564602,11.038938 0 0 1 -11.56671,-11.03491 11.564602,11.038938 0 0 1 11.55827,-11.04296 11.564602,11.038938 0 0 1 11.57093,11.03087 l -11.5646,0.008 z" />
    <path
       style="fill:#550000;stroke-width:0.324087"
       id="path1947"
       sodipodi:type="arc"
       sodipodi:cx="179.79019"
       sodipodi:cy="273.11142"
       sodipodi:rx="6.0319247"
       sodipodi:ry="6.8044772"
       sodipodi:start="0"
       sodipodi:end="6.2824551"
       sodipodi:arc-type="slice"
       d="m 185.82212,273.11142 a 6.0319247,6.8044772 0 0 1 -6.03083,6.80448 6.0319247,6.8044772 0 0 1 -6.03302,-6.802 6.0319247,6.8044772 0 0 1 6.02862,-6.80696 6.0319247,6.8044772 0 0 1 6.03522,6.79951 l -6.03192,0.005 z" />
    <text
       xml:space="preserve"
       style="font-size:9.87777px;text-align:center;text-anchor:middle;fill:#550000;stroke-width:0.264583"
       x="190.29025"
       y="246.27344"
       id="text2055"><tspan
         sodipodi:role="line"
         id="tspan2053"
         style="stroke-width:0.264583"
         x="190.29025"
         y="246.27344">O2</tspan><tspan
         sodipodi:role="line"
         style="stroke-width:0.264583"
         x="190.29025"
         y="258.62064"
         id="tspan2281">Oxigen</tspan></text>
    <text
       xml:space="preserve"
       style="font-size:9.87777px;text-align:center;text-anchor:middle;fill:#550000;stroke-width:0.264583"
       x="-219.77374"
       y="224.97913"
       id="text2059"
       transform="rotate(-76.253587)"><tspan
         sodipodi:role="line"
         id="tspan2057"
         style="stroke-width:0.264583"
         x="-219.77374"
         y="224.97913">Elecrocit</tspan></text>
    <path
       style="fill:#00ffff;stroke-width:0.264583"
       d="M 128.52478,246.01062 C 121.69115,237.6 129.5761,242.06814 117.48584,237.6 c -12.09027,-4.46815 -15.76991,-0.7885 -12.09027,5.25663 3.67965,6.04514 5.51947,1.05133 8.41062,4.20531 2.89115,3.15399 0.26284,8.67346 6.83363,13.40443 6.5708,4.73098 2.36549,4.2053 9.19912,-1.57699 6.83362,-5.7823 17.08407,7.88496 18.13539,3.67964 1.05133,-4.20531 -0.52566,-11.82743 -2.36548,-12.09026 -1.83982,-0.26283 -17.08407,-4.46814 -17.08407,-4.46814 z"
       id="path2115" />
    <text
       xml:space="preserve"
       style="font-size:9.87777px;text-align:center;text-anchor:middle;fill:#ff0000;stroke-width:0.264583"
       x="125.89646"
       y="247.58762"
       id="text2279"><tspan
         sodipodi:role="line"
         id="tspan2277"
         style="fill:#ff0000;stroke-width:0.264583"
         x="125.89646"
         y="247.58762">Neyron</tspan></text>
    <text
       xml:space="preserve"
       style="font-size:9.87777px;text-align:center;text-anchor:middle;fill:#ff0000;stroke-width:0.264583"
       x="134.30708"
       y="259.41504"
       id="text2285"><tspan
         sodipodi:role="line"
         id="tspan2283"
         style="stroke-width:0.264583"
         x="134.30708"
         y="259.41504">Two position</tspan></text>
    <path
       style="fill:#000080;stroke-width:0.264583"
       d="m 90.151327,163.48141 19.975223,-13.40442 2.36548,24.44336 z"
       id="path2341" />
    <path
       style="fill:#ff6600;stroke-width:0.264583"
       d="m 80.426548,154.54513 -0.788495,18.1354 c 0,0 -4.468143,1.57699 2.102654,-0.52566 6.570795,-2.10266 7.622125,-10.77611 5.7823,-13.66726 -1.839823,-2.89115 -7.096459,-3.94248 -7.096459,-3.94248 z"
       id="path2397" />
    <rect
       style="fill:#d45500;stroke-width:0.264583"
       id="rect2505"
       width="19.712389"
       height="27.071682"
       x="16.032743"
       y="147.97433" />
  </g>
</svg>
